<?xml version="1.0" encoding="UTF-8" ?>
<svg
  id="a"
  data-name="Layer 1"
  xmlns="http://www.w3.org/2000/svg"
  viewBox="0 0 4001 630.49"
>
  <mask id="clipMask">
    <rect x="0" y="0" width="4001" height="630.49" fill="white" />
    <path
      d="M2636.46,508.1l9.3-212.18,35.48-25.66,77.63,19.92,6.94,7.75,10.4,293.16,30.59-7.45v-14.43l11.78-11.85,6.21-48.62,17.03-17.83-1-208.43,122.41-28.08,16.78,13.63,74.84,.29,7.91,9.7,3,123.91,7.65,5.78,7.23,.09,10.29,7.58,10.75-7.7,15.04,15.14,3.4,81.55,40.74-4.28,6.86-6.69v-218.09l17.85-18.25,89.36-.92,7.74,7.88,17.6,243.09,12.79,1.06-1.31,9.99,10.06,9.65,93.54,5.98,13.95-61.51,107.85-14.39,8.51,17.11h7.5l9.89,9.3,1.69,30.7h2.91l1.27-3.5,22.4-6.28,35.4,30.89,1.87-1.24,19.31,9.51,2.36,31.3,35.81-11.13,38.72,12.06,13.66-13.69,53.23,4.55,7.39-81.05,16.09-16.47,151.58,4.17-1.19-1.07,35.44,.93v156.48H0v-75.41h0l17.38-11.04,10.77-.07,68.1,53.91,87.42-.32,3.06,2.37,5.28,.18,2.08-19.82c3.47-3.52,2.02-3.39,6.37-.93l4.27,8.17,49.83-1.73,6.03-20.57,13.37-.33,2.94,29.07-.08-23.71,4.21-6.17,22.6,9.54,3.22,7.31,32.67-5.69,5.4-5.1,6.99-263.4,124.25-4.66,7.68,8.34v5.84c.04,2.95,30.87-12.3,31.62-12.1l14.03,2.27,8.26,11.65,.49,131.94h36.4l-.77-146.67,17.51-13.48,68.4,2.95,6.92-30.7,10.85-10.76,79.27-6.49-7.74-6.76,2.19-4.76,12.02,10.52,65.89,9.04,5.44,6.49,8.22,336.16,19.1-3.9,1.65-6.32,14.18-12.8,5.21-213.77c7.25-10.91,8-5.28,2.7-17.74l210.07,41.27,7.93,117.63c17.11,1.14,9.64,2.37,22.32-9.58l1.51-39.14-10.74-18.67,2.58-7.22-4.38-.49v-5.83c4.98-.56,3.89-2.14,6.87,2.39l.71-.8,1.49-37.92,34.71-4.38,10.73-10.89,62.14,16.8,4.77,54.47c11.87-6.2,6.44-4.97,18.17,.98l-7.23,11.22,1.89,8,2-3.75,10.55,1.99s-6.31,1.09-6.31,1.11l.77,.63,45.13-6.92,15.34-14.86-.07-6.5,6-7.06,140.98-.6,17.18,45.81,32.96-46.22,85.63-9.97,32.13,38.33,1.91,62.34,26.85-2.47c6.13,.19,6.24-500.73,8.38-502.59,0,0,98.3,.35,98.3,.35l5.57,8.15,2.02,74.95,6.66,3.31,2.31-87.53,7.96-6.74c111.86,3.78,86.62-24.59,94.86,87.96l5.96,1.48,28.26-10,8.92,4.88c.11,.11,5.07,37.98,5.36,37.99l25.02,2.27,6.54,8.1,12.04,300.72h43.74l5.35-29.32,6.15-6.19,29.87-5.73,3.65-365.31,126.24-10.8,15.94,20.26,4.96,388.82,8.85,9.09,45.49-.06,8.67-8.91,1.29-221.35,94.92-101.97,10.7,362.39,15.37,4.64,11.71-3.5,7.43-74.94,8.44-5.64,1.78-6.71,79.58-4.09,14.23,13,31.79,.9,8.67,10.53,.93,86.22,17.07,19.99,.04,9.04,9.87,9.85c1.19-1.97,18,18.53,18.74,18.71l1.83-5.77,13.32,1.44,9.83-8.09"
      fill="black"
    />
  </mask>
  <rect x="0" y="0" fill="black" mask="#clipMask" />
</svg>
