<svg
  version="1.1"
  id="a"
  xmlns="http://www.w3.org/2000/svg"
  preserveAspectRatio="xMidYMax slice"
  viewBox="0 0 1000 160"
>
	<defs>
		<filter id="ex">
			<feMorphology operator="dilate" radius="4" />
		</filter>
	</defs>

	<mask id="skyline-mask" maskContentUnits="userSpaceOnUse">
    <rect fill="black" x="0" y="0" width="100%" height="100%" />
			<path
      fill="white"
      filter="url(#ex)"
      d="M659,129.6l2.3-53l8.9-6.4l19.4,5l1.7,1.9l2.6,73.3l7.6-1.9v-3.6l2.9-3l1.6-12.2l4.3-4.5l-0.2-52.1l30.6-7
				l4.2,3.4l18.7,0.1l2,2.4l0.7,31l1.9,1.4h1.8l2.6,1.9l2.7-1.9l3.8,3.8l0.8,20.4l10.1-1l1.7-1.7V71.4l4.5-4.6l22.3-0.2l1.9,2l4.4,60.8
				l3.2,0.3l-0.3,2.5l2.5,2.4l23.4,1.5l3.5-15.4l27-3.6l2.1,4.3h1.9l2.5,2.3l0.4,7.7h0.7l0.3-0.9l5.6-1.6l8.8,7.7l0.5-0.3l4.8,2.4
				l0.6,7.8l9-2.8l9.7,3l3.4-3.4l13.3,1.1l1.8-20.3l4-4.1l37.9,1l-0.3-0.3l8.9,0.2V160H0v-18.8l0,0l4.3-2.8H7l17,13.5l21.8-0.1l0.8,0.6
				h1.3l0.5-5c0.9-0.9,0.5-0.8,1.6-0.2l1.1,2l12.5-0.4l1.5-5.1l3.3-0.1l0.7,7.3V145l1.1-1.5l5.6,2.4l0.8,1.8l8.2-1.4l1.3-1.3L88,79.3
				l31.1-1.2l1.9,2.1v1.4c0,0.7,7.7-3.1,7.9-3l3.5,0.6l2.1,2.9l0.1,33h9.1l-0.2-36.7l4.4-3.4l17.1,0.7l1.7-7.7l2.7-2.7l19.8-1.6
				l-1.9-1.7l0.5-1.2l3,2.6l16.5,2.3l1.4,1.6l2.1,84l4.8-1l0.4-1.6l3.5-3.2l1.3-53.4c1.8-2.7,2-1.3,0.7-4.4L274,98l2,29.4
				c4.3,0.3,2.4,0.6,5.6-2.4l0.4-9.8l-2.7-4.7l0.6-1.8l-1.1-0.1v-1.5c1.2-0.1,1-0.5,1.7,0.6l0.2-0.2l0.4-9.5l8.7-1.1l2.7-2.7l15.5,4.2
				l1.2,13.6c3-1.5,1.6-1.2,4.5,0.2l-1.8,2.8l0.5,2l0.5-0.9l2.6,0.5l-1.6,0.3l0.2,0.2l11.3-1.7l3.8-3.7v-1.6l1.5-1.8l35.2-0.1l4.3,11.4
				l8.2-11.6l21.4-2.5l8,9.6l0.5,15.6l6.7-0.6c1.5,0,1.6-125.2,2.1-125.6l24.6,0.1l1.4,2l0.5,18.7l1.7,0.8l0.6-21.9l2-1.7
				c28,0.9,21.6-6.1,23.7,22l1.5,0.4l6.9-2.3l2.2,1.2l1.3,9.5l6.3,0.6l1.6,2l3,75.2h10.9l1.3-7.3l1.5-1.5l7.5-1.4l0.9-91.3l31.6-2.7
				l4,5.1l1.2,97.2l2.2,2.3h11.4l2.2-2.2l0.3-55.3l23.7-25.5l2.7,90.6l3.8,1.2l2.9-0.9l1.9-18.7l2.1-1.4l0.4-1.7l19.9-1l3.6,3.2
				l7.9,0.2l2.2,2.6l0.2,21.5l4.3,5v2.3l2.5,2.5c0.3-0.5,4.5,4.6,4.7,4.7l0.5-1.4l3.3,0.4l2.5-2"
    />
	</mask>
	
	<rect
    x="0"
    y="0"
    width="100%"
    height="100%"
    fill="white "
    mask="url(#skyline-mask)"
  />
</svg>
